<svg xmlns="http://www.w3.org/2000/svg" viewBox="0 0 64 64">
  <rect x="6" y="6" width="52" height="52" rx="14" fill="#0b1120"/>

  <g transform="translate(32 32) scale(1.18) translate(-32 -32)">
    <!-- logs -->
    <g stroke-linecap="round">
      <path d="M22 42 L42 35" stroke="#7c4a1d" stroke-width="4.5"/>
      <path d="M42 42 L22 35" stroke="#7c4a1d" stroke-width="4.5"/>
    </g>

    <g transform="translate(0 -2)">
      <!-- flame -->
      <path
        d="M32 18
           C28 23, 26 27, 26 31
           C26 37, 28.8 41, 32 41
           C35.7 41, 38 37.5, 38 33
           C38 28.5, 35.7 24.5, 32 18Z"
        fill="#f97316"
      />

      <!-- ember core -->
      <path
        d="M32 25
           C30.2 27.8, 29.4 30, 29.4 32
           C29.4 34.8, 30.7 37, 32.3 37
           C34 37, 35.2 35, 35.2 32.6
           C35.2 30.3, 34.1 28, 32 25Z"
        fill="#fde68a"
      />
    </g>
  </g>
</svg>
